<?xml version="1.0" encoding="utf-8"?>
<!-- Generator: Adobe Illustrator 16.0.0, SVG Export Plug-In . SVG Version: 6.00 Build 0)  -->
<!DOCTYPE svg PUBLIC "-//W3C//DTD SVG 1.1//EN" "http://www.w3.org/Graphics/SVG/1.1/DTD/svg11.dtd">
<svg version="1.1" id="Color_Picker" xmlns="http://www.w3.org/2000/svg" xmlns:xlink="http://www.w3.org/1999/xlink" x="0px"
	 y="0px" width="110px" height="110px" viewBox="0 0 110 110" enable-background="new 0 0 110 110" xml:space="preserve">
<path id="_x30_1" fill="#742CCD" d="M93.891,16.109C83.938,6.156,70.188,0,55,0v22c9.098,0,17.348,3.701,23.323,9.676L93.891,16.109
	z"/>
<polygon id="_x30_1_Check" fill-rule="evenodd" clip-rule="evenodd" fill="#FFFFFF" points="75.173,10.685 70.682,15.469 
	69.185,13.874 67.687,15.469 70.681,18.659 76.671,12.279 "/>
<path id="_x30_2" fill="#BF1CB2" d="M78.323,31.676C84.299,37.652,88,45.902,88,55h22c0-15.188-6.156-28.938-16.109-38.891
	L78.323,31.676z"/>
<polygon id="_x30_2_Check" fill-rule="evenodd" clip-rule="evenodd" fill="#FFFFFF" points="98.988,34.096 94.497,38.88 93,37.286 
	91.502,38.88 94.496,42.071 100.486,35.691 "/>
<path id="_x30_3_1_" fill="#FF3626" d="M78.323,78.324C84.299,72.348,88,64.098,88,55h22c0,15.188-6.156,28.938-16.109,38.891
	L78.323,78.324z"/>
<polygon id="_x30_3_Check" fill-rule="evenodd" clip-rule="evenodd" fill="#FFFFFF" points="98.946,66.824 94.455,71.607 
	92.958,70.014 91.46,71.607 94.454,74.799 100.444,68.418 "/>
<path id="_x30_4" fill="#FFC300" d="M93.891,93.891C83.938,103.844,70.188,110,55,110V88c9.098,0,17.348-3.701,23.323-9.676
	L93.891,93.891z"/>
<polygon id="_x30_4_Check" fill-rule="evenodd" clip-rule="evenodd" fill="#FFFFFF" points="75.173,91.185 70.682,95.969 
	69.185,94.374 67.687,95.969 70.681,99.159 76.671,92.779 "/>
<path id="_x30_5" fill="#FFF112" d="M16.109,93.891C26.063,103.844,39.813,110,55,110V88c-9.098,0-17.348-3.701-23.323-9.676
	L16.109,93.891z"/>
<polygon id="_x30_5_Check" fill-rule="evenodd" clip-rule="evenodd" fill="#FFFFFF" points="41.756,91.185 37.265,95.969 
	35.768,94.374 34.27,95.969 37.264,99.159 43.254,92.779 "/>
<path id="_x30_6" fill="#90E004" d="M31.677,78.324C25.701,72.348,22,64.098,22,55H0c0,15.188,6.156,28.938,16.109,38.891
	L31.677,78.324z"/>
<polygon id="_x30_6_Check" fill-rule="evenodd" clip-rule="evenodd" fill="#FFFFFF" points="17.095,66.824 12.604,71.607 
	11.106,70.014 9.608,71.607 12.603,74.799 18.593,68.418 "/>
<path id="_x30_7" fill="#02DBFB" d="M31.677,31.676C25.701,37.652,22,45.902,22,55H0c0-15.188,6.156-28.938,16.109-38.891
	L31.677,31.676z"/>
<polygon id="_x30_7_Check" fill-rule="evenodd" clip-rule="evenodd" fill="#FFFFFF" points="17.095,34.263 12.604,39.047 
	11.106,37.453 9.608,39.047 12.603,42.238 18.593,35.858 "/>
<path id="_x30_8" fill="#0087FA" d="M16.109,16.109C26.063,6.156,39.813,0,55,0v22c-9.098,0-17.348,3.701-23.323,9.676
	L16.109,16.109z"/>
<polygon id="_x30_8_Check" fill-rule="evenodd" clip-rule="evenodd" fill="#FFFFFF" points="41.756,10.685 37.265,15.469 
	35.768,13.874 34.27,15.469 37.264,18.659 43.254,12.279 "/>
</svg>
