<?xml version="1.0" encoding="utf-8"?>
<!-- Generator: Adobe Illustrator 16.0.0, SVG Export Plug-In . SVG Version: 6.00 Build 0)  -->
<!DOCTYPE svg PUBLIC "-//W3C//DTD SVG 1.1//EN" "http://www.w3.org/Graphics/SVG/1.1/DTD/svg11.dtd">
<svg version="1.1" id="Capa_1" xmlns="http://www.w3.org/2000/svg" xmlns:xlink="http://www.w3.org/1999/xlink" x="0px" y="0px"
	 width="14px" height="50px" viewBox="0 0 14 50" enable-background="new 0 0 14 50" xml:space="preserve">
<g>
	<g>
		<path fill-rule="evenodd" clip-rule="evenodd" fill="#FFFFFF" d="M12,0H2C0.896,0,0,0.895,0,2l2,31c0,1.104,0.896,2,2,2h6
			c1.104,0,2-0.896,2-2l2-31C14,0.895,13.104,0,12,0z M10,40H4c-1.104,0-2,0.895-2,2v6c0,1.104,0.896,2,2,2h6c1.104,0,2-0.896,2-2
			v-6C12,40.895,11.104,40,10,40z"/>
	</g>
</g>
</svg>
