<?xml version="1.0" encoding="utf-8"?>
<!-- Generator: Adobe Illustrator 16.0.0, SVG Export Plug-In . SVG Version: 6.00 Build 0)  -->
<!DOCTYPE svg PUBLIC "-//W3C//DTD SVG 1.1//EN" "http://www.w3.org/Graphics/SVG/1.1/DTD/svg11.dtd">
<svg version="1.1" id="Capa_1" xmlns="http://www.w3.org/2000/svg" xmlns:xlink="http://www.w3.org/1999/xlink" x="0px" y="0px"
	 width="16px" height="16px" viewBox="0 0 16 16" enable-background="new 0 0 16 16" xml:space="preserve">
<g>
	<g>
		<path fill-rule="evenodd" clip-rule="evenodd" fill="#FFFFFF" d="M15.728,14.371l-3.148-3.149
			c2.083-2.746,1.879-6.673-0.627-9.179c-2.736-2.736-7.173-2.736-9.909,0s-2.736,7.173,0,9.909c2.505,2.506,6.433,2.71,9.179,0.627
			l3.149,3.148c0.374,0.375,0.982,0.375,1.356,0C16.103,15.354,16.103,14.745,15.728,14.371z M3.459,10.537
			c-1.955-1.955-1.955-5.124,0-7.078c1.954-1.955,5.123-1.955,7.078,0c1.954,1.954,1.954,5.123,0,7.078
			C8.582,12.491,5.413,12.491,3.459,10.537z"/>
	</g>
</g>
</svg>
