<?xml version="1.0" encoding="utf-8"?>
<!-- Generator: Adobe Illustrator 16.0.0, SVG Export Plug-In . SVG Version: 6.00 Build 0)  -->
<!DOCTYPE svg PUBLIC "-//W3C//DTD SVG 1.1//EN" "http://www.w3.org/Graphics/SVG/1.1/DTD/svg11.dtd">
<svg version="1.1" id="Capa_1" xmlns="http://www.w3.org/2000/svg" xmlns:xlink="http://www.w3.org/1999/xlink" x="0px" y="0px"
	 width="22px" height="14px" viewBox="0 0 22 14" enable-background="new 0 0 22 14" xml:space="preserve">
<g>
	<g>
		<path fill-rule="evenodd" clip-rule="evenodd" fill="#FFFFFF" d="M1,2h20c0.553,0,1-0.448,1-1s-0.447-1-1-1H1C0.448,0,0,0.448,0,1
			S0.448,2,1,2z M21,6H1C0.448,6,0,6.448,0,7c0,0.553,0.448,1,1,1h20c0.553,0,1-0.447,1-1C22,6.448,21.553,6,21,6z M21,12H1
			c-0.552,0-1,0.447-1,1s0.448,1,1,1h20c0.553,0,1-0.447,1-1S21.553,12,21,12z"/>
	</g>
</g>
</svg>
