<?xml version="1.0" encoding="utf-8"?>
<!-- Generator: Adobe Illustrator 16.0.0, SVG Export Plug-In . SVG Version: 6.00 Build 0)  -->
<!DOCTYPE svg PUBLIC "-//W3C//DTD SVG 1.1//EN" "http://www.w3.org/Graphics/SVG/1.1/DTD/svg11.dtd">
<svg version="1.1" id="Capa_1" xmlns="http://www.w3.org/2000/svg" xmlns:xlink="http://www.w3.org/1999/xlink" x="0px" y="0px"
	 width="16px" height="13px" viewBox="0 0 16 13" enable-background="new 0 0 16 13" xml:space="preserve">
<g>
	<g>
		<path fill-rule="evenodd" clip-rule="evenodd" d="M12.49,10.012c-0.826,0-1.495,0.669-1.495,1.493
			c0,0.825,0.669,1.494,1.495,1.494s1.495-0.669,1.495-1.494C13.985,10.681,13.316,10.012,12.49,10.012z M5.497,10.012
			c-0.826,0-1.495,0.669-1.495,1.493c0,0.825,0.669,1.494,1.495,1.494c0.825,0,1.495-0.669,1.495-1.494
			C6.992,10.681,6.322,10.012,5.497,10.012z M4,1.001v-1H1c-0.553,0-1,0.448-1,1s0.447,1,1,1h1.25l1.75,7h10l2-8H4z M12.438,7.001
			H5.561l-1-4h8.877L12.438,7.001z"/>
	</g>
</g>
</svg>
