<?xml version="1.0" encoding="utf-8"?>
<!-- Generator: Adobe Illustrator 16.0.0, SVG Export Plug-In . SVG Version: 6.00 Build 0)  -->
<!DOCTYPE svg PUBLIC "-//W3C//DTD SVG 1.1//EN" "http://www.w3.org/Graphics/SVG/1.1/DTD/svg11.dtd">
<svg version="1.1" id="Capa_1" xmlns="http://www.w3.org/2000/svg" xmlns:xlink="http://www.w3.org/1999/xlink" x="0px" y="0px"
	 width="102px" height="102px" viewBox="0 0 102 102" enable-background="new 0 0 102 102" xml:space="preserve">
<path fill-rule="evenodd" clip-rule="evenodd" fill="#FF5400" d="M68.454,50.948l32.587,32.644c1.283,1.285,1.283,3.369,0,4.654
	L88.26,101.051c-1.284,1.285-3.365,1.285-4.648,0L51.014,68.396L18.407,101.02c-1.284,1.285-3.367,1.285-4.652,0L0.962,88.219
	c-1.285-1.285-1.285-3.369,0-4.654l32.617-32.632L1.112,18.409c-1.284-1.286-1.284-3.37,0-4.656L13.894,0.95
	c1.283-1.285,3.364-1.285,4.647,0L51.02,33.484L83.538,0.95c1.284-1.285,3.367-1.285,4.652,0l12.793,12.799
	c1.285,1.286,1.285,3.37,0,4.655L68.454,50.948z"/>
</svg>
