<?xml version="1.0" encoding="utf-8"?>
<!-- Generator: Adobe Illustrator 16.0.0, SVG Export Plug-In . SVG Version: 6.00 Build 0)  -->
<!DOCTYPE svg PUBLIC "-//W3C//DTD SVG 1.1//EN" "http://www.w3.org/Graphics/SVG/1.1/DTD/svg11.dtd">
<svg version="1.1" id="Capa_1" xmlns="http://www.w3.org/2000/svg" xmlns:xlink="http://www.w3.org/1999/xlink" x="0px" y="0px"
	 width="22px" height="18px" viewBox="0 0 22 18" enable-background="new 0 0 22 18" xml:space="preserve">
<g>
	<g>
		<path fill-rule="evenodd" clip-rule="evenodd" d="M16.991,13.991c-1.106,0-2.003,0.896-2.003,2.003s0.896,2.003,2.003,2.003
			s2.003-0.896,2.003-2.003S18.098,13.991,16.991,13.991z M8.012,13.991c-1.105,0-2.003,0.896-2.003,2.003s0.897,2.003,2.003,2.003
			c1.106,0,2.003-0.896,2.003-2.003S9.118,13.991,8.012,13.991z M5,2V1c0-0.552-0.447-1-1-1H1C0.447,0,0,0.448,0,1v1
			c0,0.553,0.447,1,1,1h2.182L5,13h15l2-11H5z M18.331,11H6.669L5.396,4h14.207L18.331,11z"/>
	</g>
</g>
<rect x="3.734" fill-rule="evenodd" clip-rule="evenodd" width="1.266" height="3"/>
</svg>
