<?xml version="1.0" encoding="utf-8"?>
<!-- Generator: Adobe Illustrator 16.0.0, SVG Export Plug-In . SVG Version: 6.00 Build 0)  -->
<!DOCTYPE svg PUBLIC "-//W3C//DTD SVG 1.1//EN" "http://www.w3.org/Graphics/SVG/1.1/DTD/svg11.dtd">
<svg version="1.1" id="Capa_1" xmlns="http://www.w3.org/2000/svg" xmlns:xlink="http://www.w3.org/1999/xlink" x="0px" y="0px"
	 width="14px" height="14px" viewBox="0 0 14 14" enable-background="new 0 0 14 14" xml:space="preserve">
<path fill-rule="evenodd" clip-rule="evenodd" fill="#FFFFFF" d="M8.486,7l5.205,5.205c0.412,0.411,0.412,1.076,0,1.487
	c-0.41,0.411-1.076,0.411-1.486,0L7,8.487l-5.206,5.205c-0.411,0.411-1.076,0.411-1.487,0c-0.411-0.411-0.411-1.076,0-1.487L5.512,7
	L0.307,1.794c-0.411-0.411-0.411-1.076,0-1.487c0.411-0.411,1.076-0.411,1.487,0L7,5.513l5.206-5.205
	c0.41-0.411,1.076-0.411,1.486,0c0.412,0.411,0.412,1.076,0,1.487L8.486,7z"/>
</svg>
