<?xml version="1.0" encoding="utf-8"?>
<!-- Generator: Adobe Illustrator 16.0.0, SVG Export Plug-In . SVG Version: 6.00 Build 0)  -->
<!DOCTYPE svg PUBLIC "-//W3C//DTD SVG 1.1//EN" "http://www.w3.org/Graphics/SVG/1.1/DTD/svg11.dtd">
<svg version="1.1" id="Capa_1" xmlns="http://www.w3.org/2000/svg" xmlns:xlink="http://www.w3.org/1999/xlink" x="0px" y="0px"
	 width="14px" height="12px" viewBox="0 0 14 12" enable-background="new 0 0 14 12" xml:space="preserve">
<path fill="#FFFFFF" d="M10.043,1.998c0.55,0,0.95,0.167,1.381,0.577c0.371,0.353,0.575,0.813,0.575,1.297
	c0,0.484-0.204,0.945-0.591,1.313C11.384,5.208,11.34,5.25,7.002,9.705C5.717,8.346,2.975,5.451,2.576,5.071
	C2.205,4.719,2,4.258,2,3.774s0.204-0.943,0.576-1.296C2.823,2.243,3.178,2.003,3.93,2.003c0.209,0,0.802,0.225,1.702,1.069
	l1.39,1.303l1.369-1.325C9.213,2.255,9.858,1.998,10.043,1.998 M10.043-0.002C9.011-0.002,7.859,0.782,7,1.613
	c-0.887-0.832-2.003-1.61-3.07-1.61c-1.045,0-1.965,0.297-2.731,1.025c-1.598,1.517-1.598,3.976,0,5.493
	c0.456,0.434,4.883,5.121,4.883,5.121c0.252,0.24,0.583,0.359,0.914,0.359c0.33,0,0.66-0.119,0.912-0.359
	c0,0,4.843-4.974,4.895-5.024c1.597-1.517,1.597-3.977,0-5.494C12.009,0.372,11.123-0.002,10.043-0.002L10.043-0.002z"/>
</svg>
