<?xml version="1.0" encoding="utf-8"?>
<!-- Generator: Adobe Illustrator 16.0.0, SVG Export Plug-In . SVG Version: 6.00 Build 0)  -->
<!DOCTYPE svg PUBLIC "-//W3C//DTD SVG 1.1//EN" "http://www.w3.org/Graphics/SVG/1.1/DTD/svg11.dtd">
<svg version="1.1" xmlns="http://www.w3.org/2000/svg" xmlns:xlink="http://www.w3.org/1999/xlink" x="0px" y="0px" width="110px"
	 height="110px" viewBox="0 0 110 110" enable-background="new 0 0 110 110" xml:space="preserve">
<g id="Size_Picker">
	<path id="S" fill="#4A4A4A" d="M93.891,16.109C83.938,6.156,70.188,0,55,0v22c9.098,0,17.348,3.701,23.323,9.676
		C84.299,37.652,88,45.902,88,55h22C110,39.812,103.844,26.062,93.891,16.109z"/>
	<path id="M" fill="#242424" d="M88,55c0,9.098-3.701,17.348-9.677,23.324C72.348,84.299,64.098,88,55,88v22
		c15.188,0,28.938-6.156,38.891-16.109S110,70.188,110,55H88z"/>
	<path id="L" fill="#4A4A4A" d="M31.677,78.324C25.701,72.348,22,64.098,22,55H0c0,15.188,6.156,28.938,16.109,38.891
		S39.813,110,55,110V88C45.902,88,37.652,84.299,31.677,78.324z"/>
	<path id="XL" fill="#242424" d="M16.109,16.109C6.156,26.062,0,39.812,0,55h22c0-9.098,3.701-17.348,9.677-23.324
		C37.652,25.701,45.902,22,55,22V0C39.813,0,26.063,6.156,16.109,16.109z"/>
</g>
<g id="Sizes">
	<g id="S_1_">
		<path fill="#FFFFFF" d="M89.921,23.774c-0.045,0.072-0.093,0.126-0.142,0.162c-0.05,0.036-0.113,0.054-0.191,0.054
			c-0.069,0-0.144-0.022-0.223-0.065c-0.08-0.043-0.17-0.092-0.271-0.146c-0.101-0.054-0.215-0.103-0.344-0.146
			c-0.13-0.043-0.276-0.065-0.441-0.065c-0.285,0-0.497,0.061-0.637,0.183c-0.14,0.121-0.209,0.286-0.209,0.493
			c0,0.132,0.042,0.241,0.126,0.328c0.084,0.087,0.194,0.162,0.33,0.225c0.137,0.063,0.293,0.121,0.469,0.173
			c0.175,0.053,0.354,0.111,0.537,0.175c0.184,0.064,0.362,0.141,0.538,0.228s0.331,0.198,0.468,0.333s0.247,0.299,0.331,0.493
			c0.084,0.193,0.126,0.427,0.126,0.699c0,0.303-0.053,0.587-0.157,0.851c-0.105,0.264-0.258,0.494-0.457,0.69
			c-0.199,0.197-0.445,0.352-0.738,0.464c-0.292,0.112-0.625,0.169-0.996,0.169c-0.204,0-0.412-0.021-0.624-0.063
			c-0.211-0.042-0.416-0.101-0.614-0.178c-0.197-0.076-0.384-0.167-0.558-0.272c-0.174-0.104-0.325-0.222-0.454-0.351l0.449-0.711
			c0.033-0.054,0.08-0.098,0.14-0.131c0.061-0.032,0.125-0.049,0.193-0.049c0.09,0,0.181,0.028,0.272,0.085
			c0.092,0.058,0.195,0.12,0.311,0.189c0.115,0.068,0.248,0.132,0.398,0.188c0.149,0.058,0.327,0.086,0.531,0.086
			c0.275,0,0.49-0.061,0.644-0.183c0.152-0.121,0.229-0.314,0.229-0.578c0-0.153-0.043-0.277-0.126-0.373
			c-0.085-0.097-0.194-0.176-0.331-0.239c-0.137-0.063-0.292-0.118-0.466-0.166s-0.353-0.102-0.535-0.16
			c-0.184-0.059-0.362-0.13-0.536-0.216c-0.174-0.085-0.329-0.198-0.466-0.337c-0.137-0.141-0.246-0.314-0.33-0.522
			c-0.084-0.208-0.126-0.466-0.126-0.772c0-0.246,0.049-0.486,0.148-0.72c0.099-0.234,0.244-0.442,0.437-0.625
			c0.191-0.183,0.427-0.329,0.706-0.439c0.279-0.109,0.599-0.164,0.959-0.164c0.2,0,0.396,0.016,0.587,0.047
			c0.19,0.031,0.371,0.078,0.542,0.139s0.331,0.135,0.479,0.221s0.281,0.182,0.398,0.29L89.921,23.774z"/>
	</g>
	<g id="M_1_">
		<path fill="#FFFFFF" d="M88.006,84.524c0.056,0.123,0.109,0.249,0.16,0.378c0.051-0.132,0.104-0.261,0.162-0.385
			c0.057-0.125,0.115-0.246,0.176-0.362l1.683-3.315c0.03-0.058,0.061-0.102,0.092-0.133c0.032-0.032,0.067-0.055,0.106-0.07
			s0.083-0.022,0.133-0.022c0.049,0,0.106,0,0.173,0h1.161v6.552h-1.341v-3.771c0-0.184,0.009-0.382,0.026-0.595l-1.736,3.371
			c-0.055,0.104-0.127,0.185-0.219,0.238s-0.195,0.081-0.313,0.081h-0.207c-0.117,0-0.222-0.027-0.313-0.081
			c-0.092-0.054-0.165-0.134-0.219-0.238l-1.746-3.375c0.013,0.104,0.021,0.209,0.027,0.313s0.009,0.199,0.009,0.286v3.771H84.48
			v-6.552h1.161c0.065,0,0.124,0,0.173,0c0.05,0,0.094,0.007,0.133,0.022s0.074,0.038,0.105,0.07
			c0.032,0.031,0.063,0.075,0.093,0.133l1.688,3.328C87.893,84.282,87.95,84.401,88.006,84.524z"/>
	</g>
	<g id="L_1_">
		<path fill="#FFFFFF" d="M21.391,85.951h2.431v1.215h-3.951v-6.557h1.521V85.951z"/>
	</g>
	<g id="XL_1_">
		<path fill="#FFFFFF" d="M18.283,25.629l-2.029-3.187h1.521c0.099,0,0.171,0.013,0.218,0.039c0.047,0.025,0.088,0.068,0.124,0.128
			l1.305,2.209c0.015-0.039,0.032-0.076,0.052-0.112s0.041-0.074,0.065-0.112l1.143-1.962c0.075-0.126,0.178-0.189,0.307-0.189
			h1.458l-2.057,3.118l2.102,3.438h-1.521c-0.099,0-0.179-0.024-0.24-0.072s-0.11-0.104-0.146-0.171l-1.314-2.295
			c-0.023,0.066-0.051,0.123-0.081,0.171l-1.224,2.124c-0.036,0.063-0.084,0.119-0.144,0.169c-0.061,0.05-0.136,0.074-0.226,0.074
			h-1.422L18.283,25.629z"/>
		<path fill="#FFFFFF" d="M24.596,27.784h2.431v1.215h-3.951v-6.557h1.521V27.784z"/>
	</g>
</g>
</svg>
